<?xml version="1.0" standalone="no"?>
<!DOCTYPE svg PUBLIC "-//W3C//DTD SVG 20010904//EN"
 "http://www.w3.org/TR/2001/REC-SVG-20010904/DTD/svg10.dtd">
<svg version="1.0" xmlns="http://www.w3.org/2000/svg"
 width="160.000000pt" height="160.000000pt" viewBox="0 0 160.000000 160.000000"
 preserveAspectRatio="xMidYMid meet">
<metadata>
Created by potrace 1.14, written by Peter Selinger 2001-2017
</metadata>
<g transform="translate(0.000000,160.000000) scale(0.100000,-0.100000)"
fill="#000000" stroke="none">
<path d="M737 1575 c-1 -1 -37 -5 -80 -8 -43 -4 -82 -9 -86 -12 -5 -2 -26 -7
-47 -11 -22 -3 -70 -19 -109 -36 -173 -76 -282 -190 -340 -357 -25 -72 -55
-240 -49 -277 2 -11 6 -41 9 -69 2 -27 9 -65 14 -82 5 -18 8 -33 6 -33 -2 0 7
-25 21 -56 30 -69 74 -134 126 -188 51 -53 59 -75 54 -149 -5 -71 -29 -141
-74 -212 -38 -58 -29 -70 40 -60 92 14 208 80 322 184 51 45 73 60 89 56 61
-14 319 -22 372 -12 18 4 105 17 122 19 24 2 167 70 209 98 165 113 238 270
237 510 -1 385 -197 620 -568 679 -60 10 -260 21 -268 16z"/>
</g>
</svg>
